<svg width="600" height="600" viewBox="0 0 600 600" fill="none" xmlns="http://www.w3.org/2000/svg">
<rect width="600" height="600" rx="90" fill="black"/>
<path d="M254.31 206.604C252.902 201.384 250.83 196.786 248.096 192.808C245.362 188.748 242.006 185.309 238.028 182.492C234.051 179.675 229.494 177.562 224.357 176.153C219.219 174.662 213.585 173.916 207.453 173.916C195.107 173.916 184.418 176.899 175.386 182.865C166.438 188.831 159.519 197.531 154.63 208.966C149.741 220.318 147.297 234.114 147.297 250.354C147.297 266.678 149.658 280.598 154.381 292.116C159.104 303.633 165.94 312.416 174.889 318.465C183.838 324.514 194.693 327.538 207.453 327.538C218.722 327.538 228.251 325.715 236.04 322.07C243.911 318.341 249.877 313.079 253.938 306.285C257.998 299.49 260.028 291.494 260.028 282.297L271.462 283.664H209.566V238.795H319.314V272.478C319.314 295.264 314.467 314.778 304.772 331.018C295.16 347.259 281.903 359.729 264.999 368.43C248.179 377.13 228.831 381.48 206.956 381.48C182.678 381.48 161.342 376.219 142.947 365.695C124.552 355.172 110.217 340.174 99.9425 320.702C89.6679 301.147 84.5305 277.947 84.5305 251.1C84.5305 230.219 87.6378 211.7 93.8523 195.543C100.067 179.302 108.726 165.547 119.829 154.278C131.015 143.009 143.941 134.475 158.607 128.675C173.356 122.875 189.224 119.974 206.21 119.974C220.959 119.974 234.673 122.087 247.35 126.313C260.111 130.539 271.38 136.505 281.157 144.211C291.017 151.917 299.013 161.073 305.145 171.679C311.277 182.285 315.088 193.927 316.58 206.604H254.31Z" fill="white"/>
<path d="M457.854 275.768C457.025 266.654 453.338 259.569 446.792 254.515C440.329 249.378 431.09 246.809 419.075 246.809C411.121 246.809 404.492 247.845 399.189 249.916C393.886 251.988 389.909 254.846 387.257 258.492C384.606 262.055 383.238 266.157 383.156 270.797C382.99 274.608 383.736 277.964 385.393 280.864C387.133 283.764 389.619 286.333 392.85 288.57C396.165 290.725 400.142 292.63 404.782 294.288C409.422 295.945 414.642 297.395 420.442 298.638L442.317 303.609C454.912 306.344 466.015 309.99 475.627 314.547C485.322 319.104 493.442 324.531 499.988 330.829C506.617 337.126 511.63 344.376 515.027 352.58C518.424 360.783 520.164 369.98 520.247 380.172C520.164 396.247 516.104 410.043 508.067 421.56C500.029 433.078 488.47 441.902 473.39 448.034C458.392 454.166 440.287 457.232 419.075 457.232C397.78 457.232 379.22 454.041 363.393 447.661C347.567 441.281 335.263 431.586 326.479 418.577C317.696 405.568 313.18 389.121 312.932 369.234H371.845C372.342 377.438 374.538 384.273 378.433 389.742C382.327 395.211 387.671 399.354 394.466 402.171C401.343 404.988 409.298 406.397 418.33 406.397C426.616 406.397 433.659 405.278 439.459 403.041C445.342 400.804 449.858 397.697 453.006 393.719C456.155 389.742 457.771 385.185 457.854 380.048C457.771 375.242 456.279 371.14 453.379 367.743C450.479 364.263 446.005 361.28 439.956 358.794C433.99 356.225 426.367 353.864 417.087 351.71L390.489 345.495C368.448 340.441 351.089 332.279 338.411 321.01C325.734 309.658 319.436 294.329 319.519 275.023C319.436 259.279 323.662 245.483 332.197 233.634C340.731 221.785 352.539 212.546 367.619 205.918C382.7 199.289 399.893 195.974 419.2 195.974C438.92 195.974 456.031 199.33 470.531 206.042C485.115 212.671 496.425 221.992 504.462 234.007C512.5 246.022 516.601 259.942 516.767 275.768H457.854Z" fill="#BEFF00"/>
</svg>
